<svg width="100" height="100" viewBox="0 0 100 100" fill="none" xmlns="http://www.w3.org/2000/svg">
<path d="M10 10C9.46958 10.0001 8.96091 10.2108 8.58584 10.5858C8.21078 10.9609 8.00005 11.4696 8 12V88C8.00005 88.5304 8.21078 89.0391 8.58584 89.4142C8.96091 89.7892 9.46958 89.9999 10 90H16C16.265 90.0037 16.5281 89.9548 16.7741 89.856C17.02 89.7571 17.2439 89.6104 17.4326 89.4243C17.6213 89.2382 17.7712 89.0165 17.8735 88.772C17.9758 88.5275 18.0285 88.2651 18.0285 88C18.0285 87.7349 17.9758 87.4725 17.8735 87.228C17.7712 86.9835 17.6213 86.7618 17.4326 86.5757C17.2439 86.3896 17.02 86.2429 16.7741 86.144C16.5281 86.0452 16.265 85.9963 16 86H12V14H16C16.265 14.0037 16.5281 13.9548 16.7741 13.856C17.02 13.7571 17.2439 13.6104 17.4326 13.4243C17.6213 13.2382 17.7712 13.0165 17.8735 12.772C17.9758 12.5275 18.0285 12.2651 18.0285 12C18.0285 11.735 17.9758 11.4725 17.8735 11.228C17.7712 10.9835 17.6213 10.7618 17.4326 10.5757C17.2439 10.3896 17.02 10.2429 16.7741 10.144C16.5281 10.0452 16.265 9.99625 16 10H10ZM84 10C83.735 9.99625 83.4719 10.0452 83.2259 10.144C82.98 10.2429 82.7561 10.3896 82.5674 10.5757C82.3787 10.7618 82.2288 10.9835 82.1265 11.228C82.0242 11.4725 81.9715 11.735 81.9715 12C81.9715 12.2651 82.0242 12.5275 82.1265 12.772C82.2288 13.0165 82.3787 13.2382 82.5674 13.4243C82.7561 13.6104 82.98 13.7571 83.2259 13.856C83.4719 13.9548 83.735 14.0037 84 14H88V86H84C83.735 85.9963 83.4719 86.0452 83.2259 86.144C82.98 86.2429 82.7561 86.3896 82.5674 86.5757C82.3787 86.7618 82.2288 86.9835 82.1265 87.228C82.0242 87.4725 81.9715 87.7349 81.9715 88C81.9715 88.2651 82.0242 88.5275 82.1265 88.772C82.2288 89.0165 82.3787 89.2382 82.5674 89.4243C82.7561 89.6104 82.98 89.7571 83.2259 89.856C83.4719 89.9548 83.735 90.0037 84 90H90C90.5304 89.9999 91.0391 89.7892 91.4142 89.4142C91.7892 89.0391 91.9999 88.5304 92 88V12C91.9999 11.4696 91.7892 10.9609 91.4142 10.5858C91.0391 10.2108 90.5304 10.0001 90 10H84ZM62.1797 33.0156C59.615 32.9585 57.0097 33.594 54.8203 35.1016C54.1085 35.5928 53.606 36.1028 53.0273 36.6211C52.1431 35.6086 51.1582 34.7487 50.0312 34.2266C48.2271 33.3907 46.2791 33.1343 44.3398 33.1016C42.1692 33.0642 40.2436 33.6855 38.6484 34.7266C38.3687 34.9091 38.1767 35.2226 37.9141 35.4258C37.7906 35.014 37.5378 34.6529 37.193 34.3961C36.8482 34.1393 36.4299 34.0004 36 34H28C27.4696 34.0001 26.9609 34.2108 26.5858 34.5858C26.2108 34.9609 26.0001 35.4696 26 36V64C26.0001 64.5304 26.2108 65.0391 26.5858 65.4142C26.9609 65.7892 27.4696 65.9999 28 66H36C36.263 66 36.5233 65.9481 36.7662 65.8473C37.0091 65.7466 37.2298 65.5989 37.4155 65.4128C37.6013 65.2266 37.7485 65.0057 37.8488 64.7626C37.9491 64.5195 38.0005 64.2591 38 63.9961C38 63.9961 37.98 56.2302 38 51.043C38.0038 50.1679 38.0454 49.3576 38.1875 48.6758C38.588 46.7576 39.7991 45.8351 41.7539 45.9922C42.7696 46.0741 43.1202 46.2945 43.3867 46.6133C43.6532 46.932 43.9442 47.6248 44 48.9805C43.9916 48.7652 44.0068 50.0562 44.0078 51.4961C44.0088 52.936 44.0092 54.8041 44.0078 56.6562C44.0051 60.3605 44 63.9961 44 63.9961C43.9995 64.2591 44.0509 64.5195 44.1512 64.7626C44.2515 65.0057 44.3987 65.2266 44.5845 65.4128C44.7702 65.5989 44.9909 65.7466 45.2338 65.8473C45.4767 65.9481 45.737 66 46 66H54C54.5304 65.9999 55.0391 65.7892 55.4142 65.4142C55.7892 65.0391 55.9999 64.5304 56 64V51.168C56.0108 50.0965 56.1245 49.0174 56.3672 48.0469C56.5888 47.1633 56.9569 46.7042 57.4688 46.3828C57.9806 46.0615 58.7333 45.8685 59.8164 45.9883H59.8203C60.763 46.0923 61.1531 46.3219 61.4141 46.6094C61.6734 46.895 61.9242 47.4306 62 48.5117V64C62.0001 64.5304 62.2108 65.0391 62.5858 65.4142C62.9609 65.7892 63.4696 65.9999 64 66H72C72.5304 65.9999 73.0391 65.7892 73.4142 65.4142C73.7892 65.0391 73.9999 64.5304 74 64V44C74 41.8552 73.3274 40.1829 72.6758 38.8711C71.1479 35.7932 68.0286 33.9625 64.7148 33.2969C63.8864 33.1305 63.0346 33.0347 62.1797 33.0156ZM62.1133 37.0234C62.7233 37.0339 63.335 37.0993 63.9297 37.2188C66.3084 37.6966 68.2776 39.0082 69.0938 40.6523C69.6542 41.7806 70 42.6248 70 44V62H66V48.3867C66.0002 48.3424 65.9989 48.2981 65.9961 48.2539C65.8841 46.5986 65.4186 45.0714 64.375 43.9219C63.3314 42.7723 61.8351 42.1857 60.2578 42.0117C58.4829 41.8155 56.7594 42.1035 55.3438 42.9922C53.9281 43.8808 52.9187 45.3578 52.4883 47.0742V47.0781C52.151 48.4275 52.0133 49.8005 52 51.125C52 51.1315 52 51.138 52 51.1445V62H48.0039C48.0056 60.7502 48.0057 59.3551 48.0078 56.6602C48.0092 54.807 48.0088 52.9358 48.0078 51.4922C48.0068 50.0485 48.0194 49.3146 48 48.8203V48.8164C47.9239 46.968 47.5235 45.3226 46.457 44.0469C45.3905 42.7711 43.7664 42.1439 42.0781 42.0078H42.0742C38.353 41.7089 35.0329 44.2177 34.2734 47.8555V47.8594C34.0395 48.9815 34.0042 50.0544 34 51.0273C33.983 55.4351 33.996 60.1804 34 62H30V38H34V40C34.0002 40.4107 34.1269 40.8114 34.3629 41.1477C34.5988 41.4839 34.9325 41.7393 35.3186 41.8793C35.7048 42.0192 36.1247 42.0369 36.5212 41.9299C36.9178 41.8229 37.2718 41.5965 37.5352 41.2813C38.7385 39.8384 39.8002 38.7515 40.832 38.0781C41.8639 37.4047 42.842 37.0769 44.2734 37.1016C45.8882 37.1288 47.2748 37.3623 48.3477 37.8594C49.4205 38.3565 50.2337 39.0604 50.9102 40.4102C51.046 40.6819 51.2421 40.9192 51.4833 41.1039C51.7246 41.2886 52.0048 41.4159 52.3027 41.4762C52.6005 41.5364 52.9081 41.528 53.2022 41.4516C53.4963 41.3752 53.7692 41.2328 54 41.0352C55.2171 39.9922 56.164 39.0338 57.0898 38.3945C58.46 37.4511 60.2832 36.9921 62.1133 37.0234Z" fill="#FFA800"/>
</svg>
